<svg xmlns="http://www.w3.org/2000/svg" version="1.1" xmlns:xlink="http://www.w3.org/1999/xlink" xmlns:svgjs="http://svgjs.dev/svgjs" width="1440" height="803" preserveAspectRatio="none" viewBox="0 0 1440 803"><g mask="url(&quot;#SvgjsMask1430&quot;)" fill="none"><path d="M1275.423,360.64C1344.456,357.407,1404.833,320.236,1441.687,261.774C1481.55,198.54,1504.225,119.967,1468.555,54.277C1431.579,-13.818,1352.895,-45.885,1275.423,-44.415C1200.585,-42.995,1133.346,-2.659,1094.583,61.373C1054.277,127.954,1039.552,212.109,1079.805,278.722C1118.991,343.57,1199.738,364.185,1275.423,360.64" fill="rgba(184, 165, 210, 0.49)" class="triangle-float2"></path><path d="M131.107,621.798C210.272,622.735,294.161,605.425,336.459,538.5C381.233,467.656,376.6,374.907,331.983,303.964C289.961,237.146,210.033,210.923,131.107,211.977C54.291,213.003,-20.555,243.7,-60.684,309.209C-102.598,377.631,-107.958,465.346,-65.996,533.738C-25.661,599.477,53.985,620.885,131.107,621.798" fill="rgba(184, 165, 210, 0.49)" class="triangle-float1"></path><path d="M1007.073,775.643C1076.119,776.899,1153.018,772.554,1190.446,714.52C1230.194,652.888,1215.305,573.111,1178.664,509.582C1141.991,445.998,1080.464,395.316,1007.073,396.584C935.432,397.822,880.119,452.63,845.455,515.339C812.096,575.687,798.528,649.473,834.9,708.054C869.757,764.194,941.003,774.441,1007.073,775.643" fill="rgba(184, 165, 210, 0.49)" class="triangle-float1"></path><path d="M143.259,723.998C200.903,729.309,266.123,715.593,294.141,664.937C321.629,615.239,293.151,556.761,262.039,509.248C234.574,467.305,193.292,437.714,143.259,434.521C86.524,430.9,21.568,441.967,-5.043,492.204C-30.759,540.751,4.298,594.685,33.905,640.961C60.342,682.282,94.411,719.497,143.259,723.998" fill="rgba(184, 165, 210, 0.49)" class="triangle-float1"></path><path d="M340.278,1029.944C396.567,1027.709,443.723,995.018,475.156,948.27C511.76,893.831,546.068,827.272,515.62,769.165C483.778,708.397,408.826,688.066,340.278,690.869C276.867,693.462,219.792,727.554,188.129,782.555C156.538,837.432,152.308,905.835,185.48,959.771C217.29,1011.493,279.605,1032.353,340.278,1029.944" fill="rgba(184, 165, 210, 0.49)" class="triangle-float3"></path><path d="M423.028,338.707C465.714,339.072,511.548,329.256,533.207,292.471C555.105,255.281,542.962,209.449,521.018,172.286C499.516,135.871,465.289,104.326,423.028,105.879C382.641,107.363,357.015,144.081,336.764,179.055C316.452,214.136,296.794,254.952,316.064,290.616C335.982,327.478,381.131,338.349,423.028,338.707" fill="rgba(184, 165, 210, 0.49)" class="triangle-float2"></path><path d="M1034.346,800.519C1070.224,799.027,1101.032,778.954,1120.529,748.799C1142.205,715.273,1156.985,674.259,1139.038,638.598C1119.574,599.924,1077.641,577.287,1034.346,577.555C991.499,577.821,952.708,602.438,931.878,639.882C911.613,676.31,912.369,721.379,934.787,756.523C955.7,789.308,995.493,802.135,1034.346,800.519" fill="rgba(184, 165, 210, 0.49)" class="triangle-float3"></path><path d="M959.569,500.626C1030.522,498.639,1090.446,450.128,1122.354,386.723C1151.226,329.351,1139.77,262.859,1107.03,207.603C1075.024,153.585,1022.354,111.346,959.569,111.988C897.717,112.62,850.245,158.251,817.239,210.564C781.133,267.792,750.379,335.559,780.187,396.306C812.845,462.861,885.462,502.701,959.569,500.626" fill="rgba(184, 165, 210, 0.49)" class="triangle-float3"></path></g><defs><mask id="SvgjsMask1430"><rect width="1440" height="803" fill="#ffffff"></rect></mask><style>
                @keyframes float1 {
                    0%{transform: translate(0, 0)}
                    50%{transform: translate(-10px, 0)}
                    100%{transform: translate(0, 0)}
                }

                .triangle-float1 {
                    animation: float1 5s infinite;
                }

                @keyframes float2 {
                    0%{transform: translate(0, 0)}
                    50%{transform: translate(-5px, -5px)}
                    100%{transform: translate(0, 0)}
                }

                .triangle-float2 {
                    animation: float2 4s infinite;
                }

                @keyframes float3 {
                    0%{transform: translate(0, 0)}
                    50%{transform: translate(0, -10px)}
                    100%{transform: translate(0, 0)}
                }

                .triangle-float3 {
                    animation: float3 6s infinite;
                }
            </style></defs></svg>